<svg xmlns="http://www.w3.org/2000/svg" width="315" height="61" fill="none" viewBox="0 0 388 75"><g fill="#fff" clip-path="url(#a)"><path d="M366.54 59.279c0-6.445 2.891-10.42 6.938-10.42 2.082 0 3.99.964 5.378 2.65v14.636c-1.619 2.229-3.585 3.433-5.725 3.433-3.874 0-6.591-3.854-6.591-10.3M370.067 75c3.585 0 6.881-2.048 8.789-5.421v4.758h9.136c-1.157-2.349-1.388-6.565-1.388-9.637V30.61l-9.194 1.445c1.215 2.229 1.446 6.445 1.446 9.698v5.3c-1.851-2.349-4.51-3.614-7.343-3.614-7.17 0-12.895 6.505-12.895 15.962 0 9.516 4.973 15.6 11.449 15.6m-32.207-.663h10.408c-1.041-2.228-1.388-6.505-1.388-9.999v-8.974c1.793-3.192 4.048-5.12 7.113-5.12 1.388 0 2.833.241 3.758.603l-.462-7.048c-.521-.24-1.504-.421-2.487-.421-3.122 0-6.245 2.59-7.922 8.372V43.8l-9.193 1.445c1.214 2.289 1.445 6.505 1.445 9.697v9.396c0 3.494-.289 7.77-1.272 10Zm-17.809-4.578c-4.047 0-6.765-3.794-6.765-10.48s2.718-10.48 6.649-10.48c4.048 0 6.766 3.794 6.766 10.48s-2.66 10.48-6.65 10.48Zm-.058 5.24c8.384 0 14.687-6.685 14.687-15.9 0-9.096-6.245-15.66-14.687-15.66-8.384 0-14.687 6.625-14.687 15.84 0 9.155 6.245 15.72 14.687 15.72m-31.166-.662h10.466c-1.041-2.228-1.388-6.505-1.388-9.999V49.04h6.707V44.1h-6.765c-.058-1.445-.116-2.89-.116-4.336 0-2.891 1.214-4.277 3.585-4.277 1.214 0 2.66.362 3.932 1.024l-.693-5.782c-1.388-.482-3.181-.783-4.8-.783-6.013 0-9.656 3.976-9.656 10.661v3.494h-4.915l-1.098 4.939h6.013v15.299c0 3.493-.289 7.77-1.272 9.998Zm-12.316.602c2.255 0 4.625-.662 6.187-1.445l.404-4.819c-.924.422-2.254.964-3.526.964-2.198 0-3.47-1.205-3.47-3.674V49.04h6.187l1.099-4.94h-7.286v-8.13l-7.691 1.686v6.445h-4.22l.231 4.939h3.989v17.768c0 5.24 2.834 8.131 8.096 8.131m-33.595-.602h10.409c-1.041-2.228-1.388-6.505-1.388-9.999v-8.974c1.792-3.192 4.048-5.12 7.112-5.12 1.388 0 2.833.241 3.758.603l-.462-7.048c-.521-.24-1.504-.421-2.487-.421-3.122 0-6.244 2.59-7.921 8.372V43.8l-9.194 1.445c1.214 2.289 1.445 6.505 1.445 9.697v9.396c0 3.494-.288 7.77-1.272 10Zm-22.838-8.131c0-1.988 1.156-3.554 3.932-4.096l6.071-1.325v5.24c-1.503 1.927-3.817 3.674-6.245 3.674-2.371 0-3.758-1.385-3.758-3.493Zm.809 8.733c3.874 0 7.228-2.59 9.194-5.902.057 1.867.289 4.095.694 5.3h8.442c-1.041-1.867-1.446-5.18-1.446-7.65V54.763c0-7.108-3.989-11.324-11.853-11.324-3.586 0-7.344.904-10.524 2.59l-.81 6.023c3.99-2.409 6.708-3.252 9.599-3.252 3.7 0 5.898 1.807 5.898 5.903v1.867l-7.749 1.325c-6.649 1.144-9.714 4.216-9.714 8.974 0 4.759 3.354 8.072 8.269 8.072m-46.662-.603h11.276c-1.157-2.349-1.446-7.89-1.446-11.685v-6.866h15.959v6.866c0 3.795-.347 9.336-1.503 11.685h11.333c-1.157-2.349-1.504-7.89-1.504-11.685V43.86c0-3.794.347-9.336 1.504-11.685h-11.333c1.156 2.35 1.503 7.89 1.503 11.685v5.963h-15.959V43.86c0-3.794.289-9.336 1.446-11.685h-11.276c1.099 2.35 1.504 7.89 1.504 11.685v18.792c0 3.795-.405 9.336-1.504 11.685Zm-24.631-25.659c3.122 0 5.435 2.29 6.013 7.108h-11.911c.578-4.397 2.66-7.108 5.898-7.108Zm1.619 26.261c3.47 0 7.285-1.084 9.599-2.77l.693-5.662c-2.775 2.048-5.898 3.132-8.962 3.132-4.973 0-8.269-3.132-8.905-9.035h19.313c.231-10.66-5.204-17.166-13.415-17.166-8.268 0-13.761 6.987-13.761 15.78 0 9.216 6.129 15.721 15.438 15.721Zm-46.778-.602h10.235c-.926-2.108-1.215-6.445-1.215-9.757V52.413c1.561-1.928 3.412-3.313 5.667-3.313 2.602 0 4.625 1.867 4.625 5.42v10.06c0 3.312-.289 7.649-1.214 9.757h10.293c-.983-2.228-1.33-6.505-1.33-9.999V53.438c0-6.264-3.527-9.999-8.847-9.999-3.99 0-7.112 2.289-9.194 5.782V30.61l-9.194 1.445c1.215 2.229 1.446 6.445 1.446 9.698v22.586c0 3.494-.289 7.77-1.272 10Zm-25.384 0h11.507c-1.157-2.349-1.562-7.89-1.562-11.685V38.018h1.793c3.99 0 7.806.421 11.507 2.349l-1.272-8.192h-32.96l-1.271 8.192c3.7-1.928 7.748-2.35 11.738-2.35h2.14v24.635c0 3.795-.406 9.336-1.62 11.685M53.89 70.517l-.314-1.834c-.157-1.782.262-3.459 1.048-4.612 1.887-2.83 4.193-4.493 4.193-10.64 0-5.45-4.088-9.328-9.067-9.328-1.138 0-1.919-.05-3.249-.657l-.014.019c1.954 2.162 2.057 6.407 2.057 6.98h-.038c-1.31-4.089-3.997-7.076-8.4-9.172.21 1.992-.398 4.56-.556 5.189h-.02c0-.053 0-5.87-4.35-8.49l-1.206-.735c-.891-.524-1.1-.89-1.415-2.253l-1.52-6.656h-3.613l-.004-.023 4.35-1.916c.892-.367 1.573-.839 1.73-1.572-.21.157-.576.366-1.205.366-.734 0-1.415-.262-1.834-.89h2.882c.472 0 .839-.367.839-.787V22.41a.472.472 0 0 0-.472-.472h-2.507a.387.387 0 0 0-.388.388v.055c0 .108.071.248.158.312l.298.219a.387.387 0 0 1-.23.7h-1.42v-1.28c0-.576.472-.995.996-.995h2.707v-.024c-.472-.269-1.292-.532-1.292-.532.63-.42 1.1-1.258 1.258-2.516 0 0-1.764.31-1.782.315-.422.11-.976.165-1.347.641l-.96-1.033 3.609-.97c1.64-.44 3.403-1.156 4.692-1.98 3.195-2.039 4.72-5.04 5.106-7.5l-.871-.883c-.356 2.12-1.379 3.882-2.816 5.317a6.563 6.563 0 0 0 .294-1.526c.02-.302.023-.603.013-.904.583-1.017 1.157-2.802 1.144-4.235l-.948-.903c.048.88-.259 1.979-.62 2.573-.596-2.222-2.38-5.053-5.041-7.177l-.704.704c.942.974 2.557 2.735 3.215 4.043-2.25-.686-4.624-.929-6.317-.941l-1.01 1.009c3.269.11 6.604 1.192 8.277 2.01.33.942.489 1.968.489 2.719 0 2.204-.7 3.932-3.156 5.206.492-1.133.715-2.41.805-3.645l-.92-.921c-.022 1.064-.91 4.149-2.212 5.352l-2.222.5c1.251-2.283 2.236-5.448 2.414-7.87l-.93-.931c-.13 2.101-1.9 6.441-3.713 8.95a7.42 7.42 0 0 1-.961 1.041c-.014-.01 2.874 3.03 2.874 3.03h-1.538c-.891 0-1.415.053-1.992.734l-.314.367c-.367.524-1.06.944-1.66.944-.995 0-1.622-.851-1.695-1.363h2.673l.524-.577v-.105c-1.025 0-1.057-1.1-2.253-1.1-.524 0-1.048.21-1.415.576v-1.048c.472-.367 1.363-.681 2.62-.681h1.52l-.839-.84s-2.142-.549-2.33-.599c.06-.188.65-2.086.65-3.93 0-2.698-.814-5.348-1.976-7.763l-.838.843c.46 1.28 1.18 3.595 1.18 6.137 0 1.398-.295 2.782-.81 4.08-2.09-1.567-4.594-4.975-4.873-9.967l-.985.984c.069 3.895 1.846 7.223 2.718 8.315-1.208-.318-4.624-1.205-5.943-1.545-.68-.581-1.988-2.422-2.42-4.551l-.876.874c.13 1.028.6 2.334.976 3.088a28.784 28.784 0 0 1-1.262-.354 12.842 12.842 0 0 1-2.407-3.074l.01.003c.907-3.77 5.074-6.468 7.61-7.004l-.835-.834c-3.074.805-6.159 2.84-7.685 5.758-.424-1.284-.654-2.632-.747-3.983-.067-1.032-.066-2.074-.056-3.11l-1.06 1.06c-.017.39-.033.778-.037 1.17-.046 4.497 1.052 7.032 2.164 8.813C3.137 10.553 1.167 8.34.925 5.547L0 6.472c.198 2.918 2.718 5.211 4.377 6.175 1.797 1.044 3.768 1.719 5.765 2.243 2.672.772 6.818 1.961 9.995 2.877v1.886l-.023.004c-.295-.888-1.31-1.238-2.126-1.34l-3.773-.42c.262 2.726 2.044 4.56 4.822 4.927-1.153 3.616-2.464 8.962-2.464 12.63 0 1.992.367 4.141.734 5.137.42 1.205.524 2.62.262 4.193-.157.89-.472 2.41-.682 3.564-.262 1.467-.41 3.258.262 5.136 1.774 4.953 3.879 4.088 4.193 6.918l.996 8.91-8.91-.944-.996 5.87h55.24l.105-2.149-13.888-1.572h.001Zm-27.777-9.905 2.987.839-2.777 5.66-.21-6.5Zm7.495 7.757-.367 2.148-4.298-.471 5.294-7.023 2.463.733c1.1.367 2.725.682 4.612.682h1.258c.89 2.882 2.306 3.668 3.354 5.24l-12.316-1.31Z"/></g><defs><clipPath id="a"><path fill="#fff" d="M0 0h388v75H0z"/></clipPath></defs></svg>